<svg xmlns="http://www.w3.org/2000/svg" version="1.1" xmlns:xlink="http://www.w3.org/1999/xlink" xmlns:svgjs="http://svgjs.dev/svgjs" width="1440" height="560" preserveAspectRatio="none" viewBox="0 0 1440 560">
  <g mask="url(&quot;#SvgjsMask1056&quot;)" fill="none">
    <path d="M-96.31 412.38L-96.31 412.38" stroke="#132e65" stroke-width="1.5"></path>
    <path d="M-96.31 412.38L-42.13 551.54" stroke="#132e65" stroke-width="1.5"></path>
    <path d="M-96.31 412.38L83.13 345.95" stroke="#132e65" stroke-width="1.5"></path>
    <path d="M-42.13 551.54L-42.13 551.54" stroke="#132e65" stroke-width="1.5"></path>
    <path d="M-42.13 551.54L-103.52 665.13" stroke="#132e65" stroke-width="1.5"></path>
    <path d="M-103.52 665.13L-103.52 665.13" stroke="#132e65" stroke-width="1.5"></path>
    <path d="M-103.52 665.13L60.13 676.24" stroke="#132e65" stroke-width="1.5"></path>
    <path d="M-103.52 665.13L110.73 542.16" stroke="#132e65" stroke-width="1.5"></path>
    <path d="M83.13 345.95L83.13 345.95" stroke="#132e65" stroke-width="1.5"></path>
    <path d="M83.13 345.95L221.04 379.74" stroke="#132e65" stroke-width="1.5"></path>
    <path d="M110.73 542.16L110.73 542.16" stroke="#132e65" stroke-width="1.5"></path>
    <path d="M110.73 542.16L240.63 558.02" stroke="#132e65" stroke-width="1.5"></path>
    <path d="M110.73 542.16L60.13 676.24" stroke="#132e65" stroke-width="1.5"></path>
    <path d="M110.73 542.16L-42.13 551.54" stroke="#132e65" stroke-width="1.5"></path>
    <path d="M60.13 676.24L60.13 676.24" stroke="#132e65" stroke-width="1.5"></path>
    <path d="M60.13 676.24L-42.13 551.54" stroke="#132e65" stroke-width="1.5"></path>
    <path d="M221.04 379.74L221.04 379.74" stroke="#132e65" stroke-width="1.5"></path>
    <path d="M221.04 379.74L357.07 366.78" stroke="#132e65" stroke-width="1.5"></path>
    <path d="M240.63 558.02L240.63 558.02" stroke="#132e65" stroke-width="1.5"></path>
    <path d="M240.63 558.02L236.25 677.9" stroke="#132e65" stroke-width="1.5"></path>
    <path d="M240.63 558.02L360.26 681.58" stroke="#132e65" stroke-width="1.5"></path>
    <path d="M240.63 558.02L221.04 379.74" stroke="#132e65" stroke-width="1.5"></path>
    <path d="M240.63 558.02L60.13 676.24" stroke="#132e65" stroke-width="1.5"></path>
    <path d="M236.25 677.9L236.25 677.9" stroke="#132e65" stroke-width="1.5"></path>
    <path d="M236.25 677.9L360.26 681.58" stroke="#132e65" stroke-width="1.5"></path>
    <path d="M236.25 677.9L60.13 676.24" stroke="#132e65" stroke-width="1.5"></path>
    <path d="M236.25 677.9L110.73 542.16" stroke="#132e65" stroke-width="1.5"></path>
    <path d="M236.25 677.9L221.04 379.74" stroke="#132e65" stroke-width="1.5"></path>
    <path d="M357.07 366.78L357.07 366.78" stroke="#132e65" stroke-width="1.5"></path>
    <path d="M357.07 366.78L512.36 378.39" stroke="#132e65" stroke-width="1.5"></path>
    <path d="M357.07 366.78L240.63 558.02" stroke="#132e65" stroke-width="1.5"></path>
    <path d="M360.26 681.58L360.26 681.58" stroke="#132e65" stroke-width="1.5"></path>
    <path d="M360.26 681.58L553.25 647.12" stroke="#132e65" stroke-width="1.5"></path>
    <path d="M360.26 681.58L540.95 499.2" stroke="#132e65" stroke-width="1.5"></path>
    <path d="M360.26 681.58L110.73 542.16" stroke="#132e65" stroke-width="1.5"></path>
    <path d="M512.36 378.39L512.36 378.39" stroke="#132e65" stroke-width="1.5"></path>
    <path d="M512.36 378.39L540.95 499.2" stroke="#132e65" stroke-width="1.5"></path>
    <path d="M512.36 378.39L640.62 339.26" stroke="#132e65" stroke-width="1.5"></path>
    <path d="M512.36 378.39L667.89 225.08" stroke="#132e65" stroke-width="1.5"></path>
    <path d="M512.36 378.39L659.09 553.19" stroke="#132e65" stroke-width="1.5"></path>
    <path d="M540.95 499.2L540.95 499.2" stroke="#132e65" stroke-width="1.5"></path>
    <path d="M540.95 499.2L659.09 553.19" stroke="#132e65" stroke-width="1.5"></path>
    <path d="M553.25 647.12L553.25 647.12" stroke="#132e65" stroke-width="1.5"></path>
    <path d="M553.25 647.12L646.72 711.07" stroke="#132e65" stroke-width="1.5"></path>
    <path d="M553.25 647.12L659.09 553.19" stroke="#132e65" stroke-width="1.5"></path>
    <path d="M553.25 647.12L540.95 499.2" stroke="#132e65" stroke-width="1.5"></path>
    <path d="M553.25 647.12L512.36 378.39" stroke="#132e65" stroke-width="1.5"></path>
    <path d="M553.25 647.12L236.25 677.9" stroke="#132e65" stroke-width="1.5"></path>
    <path d="M667.89 225.08L667.89 225.08" stroke="#132e65" stroke-width="1.5"></path>
    <path d="M667.89 225.08L640.62 339.26" stroke="#132e65" stroke-width="1.5"></path>
    <path d="M667.89 225.08L791.69 227.65" stroke="#132e65" stroke-width="1.5"></path>
    <path d="M667.89 225.08L841.71 397.2" stroke="#132e65" stroke-width="1.5"></path>
    <path d="M667.89 225.08L540.95 499.2" stroke="#132e65" stroke-width="1.5"></path>
    <path d="M667.89 225.08L987.55 256.71" stroke="#132e65" stroke-width="1.5"></path>
    <path d="M640.62 339.26L640.62 339.26" stroke="#132e65" stroke-width="1.5"></path>
    <path d="M640.62 339.26L791.69 227.65" stroke="#132e65" stroke-width="1.5"></path>
    <path d="M659.09 553.19L659.09 553.19" stroke="#132e65" stroke-width="1.5"></path>
    <path d="M659.09 553.19L646.72 711.07" stroke="#132e65" stroke-width="1.5"></path>
    <path d="M646.72 711.07L646.72 711.07" stroke="#132e65" stroke-width="1.5"></path>
    <path d="M646.72 711.07L540.95 499.2" stroke="#132e65" stroke-width="1.5"></path>
    <path d="M646.72 711.07L841.1 499.44" stroke="#132e65" stroke-width="1.5"></path>
    <path d="M646.72 711.07L360.26 681.58" stroke="#132e65" stroke-width="1.5"></path>
    <path d="M791.69 227.65L791.69 227.65" stroke="#132e65" stroke-width="1.5"></path>
    <path d="M791.69 227.65L841.71 397.2" stroke="#132e65" stroke-width="1.5"></path>
    <path d="M841.71 397.2L841.71 397.2" stroke="#132e65" stroke-width="1.5"></path>
    <path d="M841.71 397.2L841.1 499.44" stroke="#132e65" stroke-width="1.5"></path>
    <path d="M841.71 397.2L1010.31 378.24" stroke="#132e65" stroke-width="1.5"></path>
    <path d="M841.1 499.44L841.1 499.44" stroke="#132e65" stroke-width="1.5"></path>
    <path d="M841.1 499.44L957.79 536.09" stroke="#132e65" stroke-width="1.5"></path>
    <path d="M964.16 -39.44L964.16 -39.44" stroke="#132e65" stroke-width="1.5"></path>
    <path d="M964.16 -39.44L990.45 39.03" stroke="#132e65" stroke-width="1.5"></path>
    <path d="M964.16 -39.44L1154.96 -48.26" stroke="#132e65" stroke-width="1.5"></path>
    <path d="M990.45 39.03L990.45 39.03" stroke="#132e65" stroke-width="1.5"></path>
    <path d="M990.45 39.03L1151.62 40.63" stroke="#132e65" stroke-width="1.5"></path>
    <path d="M987.55 256.71L987.55 256.71" stroke="#132e65" stroke-width="1.5"></path>
    <path d="M987.55 256.71L1010.31 378.24" stroke="#132e65" stroke-width="1.5"></path>
    <path d="M987.55 256.71L1134.93 231.85" stroke="#132e65" stroke-width="1.5"></path>
    <path d="M1010.31 378.24L1010.31 378.24" stroke="#132e65" stroke-width="1.5"></path>
    <path d="M1010.31 378.24L1151.55 344.24" stroke="#132e65" stroke-width="1.5"></path>
    <path d="M1010.31 378.24L957.79 536.09" stroke="#132e65" stroke-width="1.5"></path>
    <path d="M957.79 536.09L957.79 536.09" stroke="#132e65" stroke-width="1.5"></path>
    <path d="M957.79 536.09L956.35 682.98" stroke="#132e65" stroke-width="1.5"></path>
    <path d="M957.79 536.09L841.71 397.2" stroke="#132e65" stroke-width="1.5"></path>
    <path d="M957.79 536.09L1120.11 642.25" stroke="#132e65" stroke-width="1.5"></path>
    <path d="M957.79 536.09L1160.17 497.98" stroke="#132e65" stroke-width="1.5"></path>
    <path d="M956.35 682.98L956.35 682.98" stroke="#132e65" stroke-width="1.5"></path>
    <path d="M956.35 682.98L1120.11 642.25" stroke="#132e65" stroke-width="1.5"></path>
    <path d="M956.35 682.98L841.1 499.44" stroke="#132e65" stroke-width="1.5"></path>
    <path d="M1154.96 -48.26L1154.96 -48.26" stroke="#132e65" stroke-width="1.5"></path>
    <path d="M1154.96 -48.26L1151.62 40.63" stroke="#132e65" stroke-width="1.5"></path>
    <path d="M1154.96 -48.26L1256.34 -94.52" stroke="#132e65" stroke-width="1.5"></path>
    <path d="M1154.96 -48.26L1267.08 87.95" stroke="#132e65" stroke-width="1.5"></path>
    <path d="M1151.62 40.63L1151.62 40.63" stroke="#132e65" stroke-width="1.5"></path>
    <path d="M1151.62 40.63L1267.08 87.95" stroke="#132e65" stroke-width="1.5"></path>
    <path d="M1134.93 231.85L1134.93 231.85" stroke="#132e65" stroke-width="1.5"></path>
    <path d="M1134.93 231.85L1151.55 344.24" stroke="#132e65" stroke-width="1.5"></path>
    <path d="M1134.93 231.85L1261.22 241.79" stroke="#132e65" stroke-width="1.5"></path>
    <path d="M1151.55 344.24L1151.55 344.24" stroke="#132e65" stroke-width="1.5"></path>
    <path d="M1151.55 344.24L1257.54 374.18" stroke="#132e65" stroke-width="1.5"></path>
    <path d="M1160.17 497.98L1160.17 497.98" stroke="#132e65" stroke-width="1.5"></path>
    <path d="M1160.17 497.98L1254.07 524.25" stroke="#132e65" stroke-width="1.5"></path>
    <path d="M1160.17 497.98L1120.11 642.25" stroke="#132e65" stroke-width="1.5"></path>
    <path d="M1160.17 497.98L1151.55 344.24" stroke="#132e65" stroke-width="1.5"></path>
    <path d="M1160.17 497.98L1257.54 374.18" stroke="#132e65" stroke-width="1.5"></path>
    <path d="M1160.17 497.98L1010.31 378.24" stroke="#132e65" stroke-width="1.5"></path>
    <path d="M1160.17 497.98L1284.81 644.91" stroke="#132e65" stroke-width="1.5"></path>
    <path d="M1120.11 642.25L1120.11 642.25" stroke="#132e65" stroke-width="1.5"></path>
    <path d="M1120.11 642.25L1284.81 644.91" stroke="#132e65" stroke-width="1.5"></path>
    <path d="M1256.34 -94.52L1256.34 -94.52" stroke="#132e65" stroke-width="1.5"></path>
    <path d="M1256.34 -94.52L1391.31 -67.57" stroke="#132e65" stroke-width="1.5"></path>
    <path d="M1256.34 -94.52L1151.62 40.63" stroke="#132e65" stroke-width="1.5"></path>
    <path d="M1256.34 -94.52L1267.08 87.95" stroke="#132e65" stroke-width="1.5"></path>
    <path d="M1267.08 87.95L1267.08 87.95" stroke="#132e65" stroke-width="1.5"></path>
    <path d="M1267.08 87.95L1405.83 64.68" stroke="#132e65" stroke-width="1.5"></path>
    <path d="M1261.22 241.79L1261.22 241.79" stroke="#132e65" stroke-width="1.5"></path>
    <path d="M1261.22 241.79L1257.54 374.18" stroke="#132e65" stroke-width="1.5"></path>
    <path d="M1261.22 241.79L1151.55 344.24" stroke="#132e65" stroke-width="1.5"></path>
    <path d="M1261.22 241.79L1267.08 87.95" stroke="#132e65" stroke-width="1.5"></path>
    <path d="M1257.54 374.18L1257.54 374.18" stroke="#132e65" stroke-width="1.5"></path>
    <path d="M1257.54 374.18L1399.68 338.11" stroke="#132e65" stroke-width="1.5"></path>
    <path d="M1254.07 524.25L1254.07 524.25" stroke="#132e65" stroke-width="1.5"></path>
    <path d="M1254.07 524.25L1284.81 644.91" stroke="#132e65" stroke-width="1.5"></path>
    <path d="M1254.07 524.25L1257.54 374.18" stroke="#132e65" stroke-width="1.5"></path>
    <path d="M1284.81 644.91L1284.81 644.91" stroke="#132e65" stroke-width="1.5"></path>
    <path d="M1284.81 644.91L1446.56 672.88" stroke="#132e65" stroke-width="1.5"></path>
    <path d="M1391.31 -67.57L1391.31 -67.57" stroke="#132e65" stroke-width="1.5"></path>
    <path d="M1391.31 -67.57L1405.83 64.68" stroke="#132e65" stroke-width="1.5"></path>
    <path d="M1391.31 -67.57L1556.47 -102.97" stroke="#132e65" stroke-width="1.5"></path>
    <path d="M1391.31 -67.57L1267.08 87.95" stroke="#132e65" stroke-width="1.5"></path>
    <path d="M1405.83 64.68L1405.83 64.68" stroke="#132e65" stroke-width="1.5"></path>
    <path d="M1405.83 64.68L1590.88 80.09" stroke="#132e65" stroke-width="1.5"></path>
    <path d="M1399.68 338.11L1399.68 338.11" stroke="#132e65" stroke-width="1.5"></path>
    <path d="M1399.68 338.11L1544.89 360.24" stroke="#132e65" stroke-width="1.5"></path>
    <path d="M1399.68 338.11L1261.22 241.79" stroke="#132e65" stroke-width="1.5"></path>
    <path d="M1428.03 540.16L1428.03 540.16" stroke="#132e65" stroke-width="1.5"></path>
    <path d="M1428.03 540.16L1446.56 672.88" stroke="#132e65" stroke-width="1.5"></path>
    <path d="M1428.03 540.16L1571.46 489.68" stroke="#132e65" stroke-width="1.5"></path>
    <path d="M1428.03 540.16L1254.07 524.25" stroke="#132e65" stroke-width="1.5"></path>
    <path d="M1428.03 540.16L1284.81 644.91" stroke="#132e65" stroke-width="1.5"></path>
    <path d="M1428.03 540.16L1549.67 681.45" stroke="#132e65" stroke-width="1.5"></path>
    <path d="M1446.56 672.88L1446.56 672.88" stroke="#132e65" stroke-width="1.5"></path>
    <path d="M1446.56 672.88L1549.67 681.45" stroke="#132e65" stroke-width="1.5"></path>
    <path d="M1556.47 -102.97L1556.47 -102.97" stroke="#132e65" stroke-width="1.5"></path>
    <path d="M1556.47 -102.97L1590.88 80.09" stroke="#132e65" stroke-width="1.5"></path>
    <path d="M1590.88 80.09L1590.88 80.09" stroke="#132e65" stroke-width="1.5"></path>
    <path d="M1590.88 80.09L1598.83 227.7" stroke="#132e65" stroke-width="1.5"></path>
    <path d="M1598.83 227.7L1598.83 227.7" stroke="#132e65" stroke-width="1.5"></path>
    <path d="M1598.83 227.7L1544.89 360.24" stroke="#132e65" stroke-width="1.5"></path>
    <path d="M1598.83 227.7L1399.68 338.11" stroke="#132e65" stroke-width="1.5"></path>
    <path d="M1598.83 227.7L1405.83 64.68" stroke="#132e65" stroke-width="1.5"></path>
    <path d="M1544.89 360.24L1544.89 360.24" stroke="#132e65" stroke-width="1.5"></path>
    <path d="M1544.89 360.24L1571.46 489.68" stroke="#132e65" stroke-width="1.5"></path>
    <path d="M1544.89 360.24L1428.03 540.16" stroke="#132e65" stroke-width="1.5"></path>
    <path d="M1544.89 360.24L1590.88 80.09" stroke="#132e65" stroke-width="1.5"></path>
    <path d="M1571.46 489.68L1571.46 489.68" stroke="#132e65" stroke-width="1.5"></path>
    <path d="M1571.46 489.68L1549.67 681.45" stroke="#132e65" stroke-width="1.5"></path>
    <path d="M1571.46 489.68L1446.56 672.88" stroke="#132e65" stroke-width="1.5"></path>
    <path d="M1571.46 489.68L1399.68 338.11" stroke="#132e65" stroke-width="1.5"></path>
    <path d="M1571.46 489.68L1598.83 227.7" stroke="#132e65" stroke-width="1.5"></path>
    <path d="M1549.67 681.45L1549.67 681.45" stroke="#132e65" stroke-width="1.5"></path>
    <path d="M1549.67 681.45L1284.81 644.91" stroke="#132e65" stroke-width="1.5"></path>
    <path d="M1549.67 681.45L1544.89 360.24" stroke="#132e65" stroke-width="1.5"></path>
    <circle r="5" cx="-96.31" cy="412.38" fill="#132e65"></circle>
    <circle r="5" cx="-42.13" cy="551.54" fill="#132e65"></circle>
    <circle r="5" cx="-103.52" cy="665.13" fill="#132e65"></circle>
    <circle r="5" cx="83.13" cy="345.95" fill="#132e65"></circle>
    <circle r="5" cx="110.73" cy="542.16" fill="#132e65"></circle>
    <circle r="5" cx="60.13" cy="676.24" fill="#132e65"></circle>
    <circle r="5" cx="221.04" cy="379.74" fill="#132e65"></circle>
    <circle r="5" cx="240.63" cy="558.02" fill="#132e65"></circle>
    <circle r="5" cx="236.25" cy="677.9" fill="#132e65"></circle>
    <circle r="5" cx="357.07" cy="366.78" fill="#132e65"></circle>
    <circle r="5" cx="360.26" cy="681.58" fill="#132e65"></circle>
    <circle r="5" cx="512.36" cy="378.39" fill="#132e65"></circle>
    <circle r="5" cx="540.95" cy="499.2" fill="#132e65"></circle>
    <circle r="5" cx="553.25" cy="647.12" fill="#132e65"></circle>
    <circle r="5" cx="667.89" cy="225.08" fill="#132e65"></circle>
    <circle r="5" cx="640.62" cy="339.26" fill="#132e65"></circle>
    <circle r="5" cx="659.09" cy="553.19" fill="#132e65"></circle>
    <circle r="5" cx="646.72" cy="711.07" fill="#132e65"></circle>
    <circle r="5" cx="791.69" cy="227.65" fill="#132e65"></circle>
    <circle r="5" cx="841.71" cy="397.2" fill="#132e65"></circle>
    <circle r="5" cx="841.1" cy="499.44" fill="#132e65"></circle>
    <circle r="5" cx="964.16" cy="-39.44" fill="#132e65"></circle>
    <circle r="5" cx="990.45" cy="39.03" fill="#132e65"></circle>
    <circle r="5" cx="987.55" cy="256.71" fill="#132e65"></circle>
    <circle r="5" cx="1010.31" cy="378.24" fill="#132e65"></circle>
    <circle r="5" cx="957.79" cy="536.09" fill="#132e65"></circle>
    <circle r="5" cx="956.35" cy="682.98" fill="#132e65"></circle>
    <circle r="5" cx="1154.96" cy="-48.26" fill="#132e65"></circle>
    <circle r="5" cx="1151.62" cy="40.63" fill="#132e65"></circle>
    <circle r="5" cx="1134.93" cy="231.85" fill="#132e65"></circle>
    <circle r="5" cx="1151.55" cy="344.24" fill="#132e65"></circle>
    <circle r="5" cx="1160.17" cy="497.98" fill="#132e65"></circle>
    <circle r="5" cx="1120.11" cy="642.25" fill="#132e65"></circle>
    <circle r="5" cx="1256.34" cy="-94.52" fill="#132e65"></circle>
    <circle r="5" cx="1267.08" cy="87.95" fill="#132e65"></circle>
    <circle r="5" cx="1261.22" cy="241.79" fill="#132e65"></circle>
    <circle r="5" cx="1257.54" cy="374.18" fill="#132e65"></circle>
    <circle r="5" cx="1254.07" cy="524.25" fill="#132e65"></circle>
    <circle r="5" cx="1284.81" cy="644.91" fill="#132e65"></circle>
    <circle r="5" cx="1391.31" cy="-67.57" fill="#132e65"></circle>
    <circle r="5" cx="1405.83" cy="64.68" fill="#132e65"></circle>
    <circle r="5" cx="1399.68" cy="338.11" fill="#132e65"></circle>
    <circle r="5" cx="1428.03" cy="540.16" fill="#132e65"></circle>
    <circle r="5" cx="1446.56" cy="672.88" fill="#132e65"></circle>
    <circle r="5" cx="1556.47" cy="-102.97" fill="#132e65"></circle>
    <circle r="5" cx="1590.88" cy="80.09" fill="#132e65"></circle>
    <circle r="5" cx="1598.83" cy="227.7" fill="#132e65"></circle>
    <circle r="5" cx="1544.89" cy="360.24" fill="#132e65"></circle>
    <circle r="5" cx="1571.46" cy="489.68" fill="#132e65"></circle>
    <circle r="5" cx="1549.67" cy="681.45" fill="#132e65"></circle>
    <path d="M94.58 662L94.58 662" stroke="hsl(290.5, 79.3%, 34.4%)" stroke-width="1.5"></path>
    <path d="M94.58 662L105.39 556.1" stroke="hsl(290.5, 79.3%, 34.4%)" stroke-width="1.5"></path>
    <path d="M94.58 662L230.58 711.28" stroke="hsl(290.5, 79.3%, 34.4%)" stroke-width="1.5"></path>
    <path d="M94.58 662L-54.6 661.15" stroke="hsl(290.5, 79.3%, 34.4%)" stroke-width="1.5"></path>
    <path d="M188.46 536.02L188.46 536.02" stroke="hsl(290.5, 79.3%, 34.4%)" stroke-width="1.5"></path>
    <path d="M188.46 536.02L105.39 556.1" stroke="hsl(290.5, 79.3%, 34.4%)" stroke-width="1.5"></path>
    <path d="M188.46 536.02L94.58 662" stroke="hsl(290.5, 79.3%, 34.4%)" stroke-width="1.5"></path>
    <path d="M380.92 527.62L380.92 527.62" stroke="hsl(290.5, 79.3%, 34.4%)" stroke-width="1.5"></path>
    <path d="M380.92 527.62L503.02 512.61" stroke="hsl(290.5, 79.3%, 34.4%)" stroke-width="1.5"></path>
    <path d="M380.92 527.62L382.56 681.52" stroke="hsl(290.5, 79.3%, 34.4%)" stroke-width="1.5"></path>
    <path d="M380.92 527.62L493.64 408.52" stroke="hsl(290.5, 79.3%, 34.4%)" stroke-width="1.5"></path>
    <path d="M380.92 527.62L188.46 536.02" stroke="hsl(290.5, 79.3%, 34.4%)" stroke-width="1.5"></path>
    <path d="M380.92 527.62L502.7 688.5" stroke="hsl(290.5, 79.3%, 34.4%)" stroke-width="1.5"></path>
    <path d="M380.92 527.62L230.58 711.28" stroke="hsl(290.5, 79.3%, 34.4%)" stroke-width="1.5"></path>
    <path d="M382.56 681.52L382.56 681.52" stroke="hsl(290.5, 79.3%, 34.4%)" stroke-width="1.5"></path>
    <path d="M382.56 681.52L502.7 688.5" stroke="hsl(290.5, 79.3%, 34.4%)" stroke-width="1.5"></path>
    <path d="M382.56 681.52L230.58 711.28" stroke="hsl(290.5, 79.3%, 34.4%)" stroke-width="1.5"></path>
    <path d="M382.56 681.52L503.02 512.61" stroke="hsl(290.5, 79.3%, 34.4%)" stroke-width="1.5"></path>
    <path d="M503.02 512.61L503.02 512.61" stroke="hsl(290.5, 79.3%, 34.4%)" stroke-width="1.5"></path>
    <path d="M503.02 512.61L493.64 408.52" stroke="hsl(290.5, 79.3%, 34.4%)" stroke-width="1.5"></path>
    <path d="M692.27 500.13L692.27 500.13" stroke="hsl(290.5, 79.3%, 34.4%)" stroke-width="1.5"></path>
    <path d="M692.27 500.13L820.42 500.8" stroke="hsl(290.5, 79.3%, 34.4%)" stroke-width="1.5"></path>
    <path d="M692.27 500.13L683.92 644.37" stroke="hsl(290.5, 79.3%, 34.4%)" stroke-width="1.5"></path>
    <path d="M692.27 500.13L809.8 637.57" stroke="hsl(290.5, 79.3%, 34.4%)" stroke-width="1.5"></path>
    <path d="M860.6 400.35L860.6 400.35" stroke="hsl(290.5, 79.3%, 34.4%)" stroke-width="1.5"></path>
    <path d="M860.6 400.35L820.42 500.8" stroke="hsl(290.5, 79.3%, 34.4%)" stroke-width="1.5"></path>
    <path d="M860.6 400.35L980.34 383.51" stroke="hsl(290.5, 79.3%, 34.4%)" stroke-width="1.5"></path>
    <path d="M820.42 500.8L820.42 500.8" stroke="hsl(290.5, 79.3%, 34.4%)" stroke-width="1.5"></path>
    <path d="M820.42 500.8L939.02 560.36" stroke="hsl(290.5, 79.3%, 34.4%)" stroke-width="1.5"></path>
    <path d="M820.42 500.8L809.8 637.57" stroke="hsl(290.5, 79.3%, 34.4%)" stroke-width="1.5"></path>
    <path d="M820.42 500.8L683.92 644.37" stroke="hsl(290.5, 79.3%, 34.4%)" stroke-width="1.5"></path>
    <path d="M939.02 560.36L939.02 560.36" stroke="hsl(290.5, 79.3%, 34.4%)" stroke-width="1.5"></path>
    <path d="M939.02 560.36L997.97 639.45" stroke="hsl(290.5, 79.3%, 34.4%)" stroke-width="1.5"></path>
    <path d="M939.02 560.36L809.8 637.57" stroke="hsl(290.5, 79.3%, 34.4%)" stroke-width="1.5"></path>
    <path d="M939.02 560.36L1109.59 519.62" stroke="hsl(290.5, 79.3%, 34.4%)" stroke-width="1.5"></path>
    <path d="M939.02 560.36L860.6 400.35" stroke="hsl(290.5, 79.3%, 34.4%)" stroke-width="1.5"></path>
    <path d="M1089.38 410.48L1089.38 410.48" stroke="hsl(290.5, 79.3%, 34.4%)" stroke-width="1.5"></path>
    <path d="M1089.38 410.48L1109.59 519.62" stroke="hsl(290.5, 79.3%, 34.4%)" stroke-width="1.5"></path>
    <path d="M1089.38 410.48L980.34 383.51" stroke="hsl(290.5, 79.3%, 34.4%)" stroke-width="1.5"></path>
    <path d="M1089.38 410.48L1244.44 508.2" stroke="hsl(290.5, 79.3%, 34.4%)" stroke-width="1.5"></path>
    <path d="M1287.1 69.02L1287.1 69.02" stroke="hsl(290.5, 79.3%, 34.4%)" stroke-width="1.5"></path>
    <path d="M1287.1 69.02L1432.67 40.13" stroke="hsl(290.5, 79.3%, 34.4%)" stroke-width="1.5"></path>
    <path d="M1287.1 69.02L1265.29 260.19" stroke="hsl(290.5, 79.3%, 34.4%)" stroke-width="1.5"></path>
    <path d="M1244.44 508.2L1244.44 508.2" stroke="hsl(290.5, 79.3%, 34.4%)" stroke-width="1.5"></path>
    <path d="M1244.44 508.2L1109.59 519.62" stroke="hsl(290.5, 79.3%, 34.4%)" stroke-width="1.5"></path>
    <path d="M1244.44 508.2L1268.28 367.24" stroke="hsl(290.5, 79.3%, 34.4%)" stroke-width="1.5"></path>
    <path d="M1295.29 662.05L1295.29 662.05" stroke="hsl(290.5, 79.3%, 34.4%)" stroke-width="1.5"></path>
    <path d="M1295.29 662.05L1409.14 669.04" stroke="hsl(290.5, 79.3%, 34.4%)" stroke-width="1.5"></path>
    <path d="M1295.29 662.05L1244.44 508.2" stroke="hsl(290.5, 79.3%, 34.4%)" stroke-width="1.5"></path>
    <path d="M1295.29 662.05L1106.52 667.55" stroke="hsl(290.5, 79.3%, 34.4%)" stroke-width="1.5"></path>
    <path d="M1295.29 662.05L1398.14 498.49" stroke="hsl(290.5, 79.3%, 34.4%)" stroke-width="1.5"></path>
    <path d="M1543.85 509.01L1543.85 509.01" stroke="hsl(290.5, 79.3%, 34.4%)" stroke-width="1.5"></path>
    <path d="M1543.85 509.01L1546.93 643.95" stroke="hsl(290.5, 79.3%, 34.4%)" stroke-width="1.5"></path>
    <path d="M1543.85 509.01L1398.14 498.49" stroke="hsl(290.5, 79.3%, 34.4%)" stroke-width="1.5"></path>
    <path d="M1543.85 509.01L1573.02 361.92" stroke="hsl(290.5, 79.3%, 34.4%)" stroke-width="1.5"></path>
    <path d="M1543.85 509.01L1460.05 345.32" stroke="hsl(290.5, 79.3%, 34.4%)" stroke-width="1.5"></path>
    <path d="M1543.85 509.01L1409.14 669.04" stroke="hsl(290.5, 79.3%, 34.4%)" stroke-width="1.5"></path>
    <path d="M1543.85 509.01L1590.52 259.32" stroke="hsl(290.5, 79.3%, 34.4%)" stroke-width="1.5"></path>
    <path d="M-98.77 505L-98.77 505" stroke="hsl(290.5, 79.3%, 34.4%)" stroke-width="1.5"></path>
    <path d="M-98.77 505L-54.6 661.15" stroke="hsl(290.5, 79.3%, 34.4%)" stroke-width="1.5"></path>
    <path d="M-98.77 505L105.39 556.1" stroke="hsl(290.5, 79.3%, 34.4%)" stroke-width="1.5"></path>
    <path d="M-98.77 505L94.58 662" stroke="hsl(290.5, 79.3%, 34.4%)" stroke-width="1.5"></path>
    <path d="M-98.77 505L188.46 536.02" stroke="hsl(290.5, 79.3%, 34.4%)" stroke-width="1.5"></path>
    <path d="M-54.6 661.15L-54.6 661.15" stroke="hsl(290.5, 79.3%, 34.4%)" stroke-width="1.5"></path>
    <path d="M-54.6 661.15L105.39 556.1" stroke="hsl(290.5, 79.3%, 34.4%)" stroke-width="1.5"></path>
    <path d="M-54.6 661.15L188.46 536.02" stroke="hsl(290.5, 79.3%, 34.4%)" stroke-width="1.5"></path>
    <path d="M-54.6 661.15L230.58 711.28" stroke="hsl(290.5, 79.3%, 34.4%)" stroke-width="1.5"></path>
    <path d="M-54.6 661.15L382.56 681.52" stroke="hsl(290.5, 79.3%, 34.4%)" stroke-width="1.5"></path>
    <path d="M105.39 556.1L105.39 556.1" stroke="hsl(290.5, 79.3%, 34.4%)" stroke-width="1.5"></path>
    <path d="M230.58 711.28L230.58 711.28" stroke="hsl(290.5, 79.3%, 34.4%)" stroke-width="1.5"></path>
    <path d="M230.58 711.28L188.46 536.02" stroke="hsl(290.5, 79.3%, 34.4%)" stroke-width="1.5"></path>
    <path d="M230.58 711.28L105.39 556.1" stroke="hsl(290.5, 79.3%, 34.4%)" stroke-width="1.5"></path>
    <path d="M493.64 408.52L493.64 408.52" stroke="hsl(290.5, 79.3%, 34.4%)" stroke-width="1.5"></path>
    <path d="M493.64 408.52L692.27 500.13" stroke="hsl(290.5, 79.3%, 34.4%)" stroke-width="1.5"></path>
    <path d="M502.7 688.5L502.7 688.5" stroke="hsl(290.5, 79.3%, 34.4%)" stroke-width="1.5"></path>
    <path d="M502.7 688.5L503.02 512.61" stroke="hsl(290.5, 79.3%, 34.4%)" stroke-width="1.5"></path>
    <path d="M683.92 644.37L683.92 644.37" stroke="hsl(290.5, 79.3%, 34.4%)" stroke-width="1.5"></path>
    <path d="M683.92 644.37L809.8 637.57" stroke="hsl(290.5, 79.3%, 34.4%)" stroke-width="1.5"></path>
    <path d="M683.92 644.37L502.7 688.5" stroke="hsl(290.5, 79.3%, 34.4%)" stroke-width="1.5"></path>
    <path d="M809.8 637.57L809.8 637.57" stroke="hsl(290.5, 79.3%, 34.4%)" stroke-width="1.5"></path>
    <path d="M980.34 383.51L980.34 383.51" stroke="hsl(290.5, 79.3%, 34.4%)" stroke-width="1.5"></path>
    <path d="M980.34 383.51L939.02 560.36" stroke="hsl(290.5, 79.3%, 34.4%)" stroke-width="1.5"></path>
    <path d="M980.34 383.51L1109.59 519.62" stroke="hsl(290.5, 79.3%, 34.4%)" stroke-width="1.5"></path>
    <path d="M980.34 383.51L1089.26 217.83" stroke="hsl(290.5, 79.3%, 34.4%)" stroke-width="1.5"></path>
    <path d="M980.34 383.51L820.42 500.8" stroke="hsl(290.5, 79.3%, 34.4%)" stroke-width="1.5"></path>
    <path d="M997.97 639.45L997.97 639.45" stroke="hsl(290.5, 79.3%, 34.4%)" stroke-width="1.5"></path>
    <path d="M997.97 639.45L1106.52 667.55" stroke="hsl(290.5, 79.3%, 34.4%)" stroke-width="1.5"></path>
    <path d="M997.97 639.45L1109.59 519.62" stroke="hsl(290.5, 79.3%, 34.4%)" stroke-width="1.5"></path>
    <path d="M1089.26 217.83L1089.26 217.83" stroke="hsl(290.5, 79.3%, 34.4%)" stroke-width="1.5"></path>
    <path d="M1089.26 217.83L1265.29 260.19" stroke="hsl(290.5, 79.3%, 34.4%)" stroke-width="1.5"></path>
    <path d="M1089.26 217.83L1089.38 410.48" stroke="hsl(290.5, 79.3%, 34.4%)" stroke-width="1.5"></path>
    <path d="M1109.59 519.62L1109.59 519.62" stroke="hsl(290.5, 79.3%, 34.4%)" stroke-width="1.5"></path>
    <path d="M1109.59 519.62L1106.52 667.55" stroke="hsl(290.5, 79.3%, 34.4%)" stroke-width="1.5"></path>
    <path d="M1106.52 667.55L1106.52 667.55" stroke="hsl(290.5, 79.3%, 34.4%)" stroke-width="1.5"></path>
    <path d="M1106.52 667.55L939.02 560.36" stroke="hsl(290.5, 79.3%, 34.4%)" stroke-width="1.5"></path>
    <path d="M1265.29 260.19L1265.29 260.19" stroke="hsl(290.5, 79.3%, 34.4%)" stroke-width="1.5"></path>
    <path d="M1265.29 260.19L1268.28 367.24" stroke="hsl(290.5, 79.3%, 34.4%)" stroke-width="1.5"></path>
    <path d="M1268.28 367.24L1268.28 367.24" stroke="hsl(290.5, 79.3%, 34.4%)" stroke-width="1.5"></path>
    <path d="M1416.74 -80.44L1416.74 -80.44" stroke="hsl(290.5, 79.3%, 34.4%)" stroke-width="1.5"></path>
    <path d="M1416.74 -80.44L1432.67 40.13" stroke="hsl(290.5, 79.3%, 34.4%)" stroke-width="1.5"></path>
    <path d="M1416.74 -80.44L1610.36 -60.56" stroke="hsl(290.5, 79.3%, 34.4%)" stroke-width="1.5"></path>
    <path d="M1416.74 -80.44L1287.1 69.02" stroke="hsl(290.5, 79.3%, 34.4%)" stroke-width="1.5"></path>
    <path d="M1432.67 40.13L1432.67 40.13" stroke="hsl(290.5, 79.3%, 34.4%)" stroke-width="1.5"></path>
    <path d="M1432.67 40.13L1585.22 51.48" stroke="hsl(290.5, 79.3%, 34.4%)" stroke-width="1.5"></path>
    <path d="M1460.05 345.32L1460.05 345.32" stroke="hsl(290.5, 79.3%, 34.4%)" stroke-width="1.5"></path>
    <path d="M1460.05 345.32L1573.02 361.92" stroke="hsl(290.5, 79.3%, 34.4%)" stroke-width="1.5"></path>
    <path d="M1460.05 345.32L1590.52 259.32" stroke="hsl(290.5, 79.3%, 34.4%)" stroke-width="1.5"></path>
    <path d="M1460.05 345.32L1398.14 498.49" stroke="hsl(290.5, 79.3%, 34.4%)" stroke-width="1.5"></path>
    <path d="M1398.14 498.49L1398.14 498.49" stroke="hsl(290.5, 79.3%, 34.4%)" stroke-width="1.5"></path>
    <path d="M1398.14 498.49L1244.44 508.2" stroke="hsl(290.5, 79.3%, 34.4%)" stroke-width="1.5"></path>
    <path d="M1398.14 498.49L1409.14 669.04" stroke="hsl(290.5, 79.3%, 34.4%)" stroke-width="1.5"></path>
    <path d="M1398.14 498.49L1268.28 367.24" stroke="hsl(290.5, 79.3%, 34.4%)" stroke-width="1.5"></path>
    <path d="M1409.14 669.04L1409.14 669.04" stroke="hsl(290.5, 79.3%, 34.4%)" stroke-width="1.5"></path>
    <path d="M1409.14 669.04L1546.93 643.95" stroke="hsl(290.5, 79.3%, 34.4%)" stroke-width="1.5"></path>
    <path d="M1409.14 669.04L1244.44 508.2" stroke="hsl(290.5, 79.3%, 34.4%)" stroke-width="1.5"></path>
    <path d="M1409.14 669.04L1106.52 667.55" stroke="hsl(290.5, 79.3%, 34.4%)" stroke-width="1.5"></path>
    <path d="M1610.36 -60.56L1610.36 -60.56" stroke="hsl(290.5, 79.3%, 34.4%)" stroke-width="1.5"></path>
    <path d="M1610.36 -60.56L1585.22 51.48" stroke="hsl(290.5, 79.3%, 34.4%)" stroke-width="1.5"></path>
    <path d="M1610.36 -60.56L1432.67 40.13" stroke="hsl(290.5, 79.3%, 34.4%)" stroke-width="1.5"></path>
    <path d="M1585.22 51.48L1585.22 51.48" stroke="hsl(290.5, 79.3%, 34.4%)" stroke-width="1.5"></path>
    <path d="M1590.52 259.32L1590.52 259.32" stroke="hsl(290.5, 79.3%, 34.4%)" stroke-width="1.5"></path>
    <path d="M1590.52 259.32L1573.02 361.92" stroke="hsl(290.5, 79.3%, 34.4%)" stroke-width="1.5"></path>
    <path d="M1590.52 259.32L1585.22 51.48" stroke="hsl(290.5, 79.3%, 34.4%)" stroke-width="1.5"></path>
    <path d="M1573.02 361.92L1573.02 361.92" stroke="hsl(290.5, 79.3%, 34.4%)" stroke-width="1.5"></path>
    <path d="M1546.93 643.95L1546.93 643.95" stroke="hsl(290.5, 79.3%, 34.4%)" stroke-width="1.5"></path>
    <path d="M1546.93 643.95L1398.14 498.49" stroke="hsl(290.5, 79.3%, 34.4%)" stroke-width="1.5"></path>
    <path d="M1546.93 643.95L1295.29 662.05" stroke="hsl(290.5, 79.3%, 34.4%)" stroke-width="1.5"></path>
    <path d="M1546.93 643.95L1573.02 361.92" stroke="hsl(290.5, 79.3%, 34.4%)" stroke-width="1.5"></path>
    <path d="M1546.93 643.95L1460.05 345.32" stroke="hsl(290.5, 79.3%, 34.4%)" stroke-width="1.5"></path>
    <circle r="25" cx="94.58" cy="662" fill="url(&quot;#SvgjsRadialGradient1057&quot;)"></circle>
    <circle r="25" cx="188.46" cy="536.02" fill="url(&quot;#SvgjsRadialGradient1057&quot;)"></circle>
    <circle r="25" cx="380.92" cy="527.62" fill="url(&quot;#SvgjsRadialGradient1057&quot;)"></circle>
    <circle r="25" cx="382.56" cy="681.52" fill="url(&quot;#SvgjsRadialGradient1057&quot;)"></circle>
    <circle r="25" cx="503.02" cy="512.61" fill="url(&quot;#SvgjsRadialGradient1057&quot;)"></circle>
    <circle r="25" cx="692.27" cy="500.13" fill="url(&quot;#SvgjsRadialGradient1057&quot;)"></circle>
    <circle r="25" cx="860.6" cy="400.35" fill="url(&quot;#SvgjsRadialGradient1057&quot;)"></circle>
    <circle r="25" cx="820.42" cy="500.8" fill="url(&quot;#SvgjsRadialGradient1057&quot;)"></circle>
    <circle r="25" cx="939.02" cy="560.36" fill="url(&quot;#SvgjsRadialGradient1057&quot;)"></circle>
    <circle r="25" cx="1089.38" cy="410.48" fill="url(&quot;#SvgjsRadialGradient1057&quot;)"></circle>
    <circle r="25" cx="1287.1" cy="69.02" fill="url(&quot;#SvgjsRadialGradient1057&quot;)"></circle>
    <circle r="25" cx="1244.44" cy="508.2" fill="url(&quot;#SvgjsRadialGradient1057&quot;)"></circle>
    <circle r="25" cx="1295.29" cy="662.05" fill="url(&quot;#SvgjsRadialGradient1057&quot;)"></circle>
    <circle r="25" cx="1543.85" cy="509.01" fill="url(&quot;#SvgjsRadialGradient1057&quot;)"></circle>
    <circle r="5" cx="-98.77" cy="505" fill="#b487bc"></circle>
    <circle r="5" cx="-54.6" cy="661.15" fill="#b487bc"></circle>
    <circle r="5" cx="105.39" cy="556.1" fill="#b487bc"></circle>
    <circle r="5" cx="230.58" cy="711.28" fill="#b487bc"></circle>
    <circle r="5" cx="493.64" cy="408.52" fill="#b487bc"></circle>
    <circle r="5" cx="502.7" cy="688.5" fill="#b487bc"></circle>
    <circle r="5" cx="683.92" cy="644.37" fill="#b487bc"></circle>
    <circle r="5" cx="809.8" cy="637.57" fill="#b487bc"></circle>
    <circle r="5" cx="980.34" cy="383.51" fill="#b487bc"></circle>
    <circle r="5" cx="997.97" cy="639.45" fill="#b487bc"></circle>
    <circle r="5" cx="1089.26" cy="217.83" fill="#b487bc"></circle>
    <circle r="5" cx="1109.59" cy="519.62" fill="#b487bc"></circle>
    <circle r="5" cx="1106.52" cy="667.55" fill="#b487bc"></circle>
    <circle r="5" cx="1265.29" cy="260.19" fill="#b487bc"></circle>
    <circle r="5" cx="1268.28" cy="367.24" fill="#b487bc"></circle>
    <circle r="5" cx="1416.74" cy="-80.44" fill="#b487bc"></circle>
    <circle r="5" cx="1432.67" cy="40.13" fill="#b487bc"></circle>
    <circle r="5" cx="1460.05" cy="345.32" fill="#b487bc"></circle>
    <circle r="5" cx="1398.14" cy="498.49" fill="#b487bc"></circle>
    <circle r="5" cx="1409.14" cy="669.04" fill="#b487bc"></circle>
    <circle r="5" cx="1610.36" cy="-60.56" fill="#b487bc"></circle>
    <circle r="5" cx="1585.22" cy="51.48" fill="#b487bc"></circle>
    <circle r="5" cx="1590.52" cy="259.32" fill="#b487bc"></circle>
    <circle r="5" cx="1573.02" cy="361.92" fill="#b487bc"></circle>
    <circle r="5" cx="1546.93" cy="643.95" fill="#b487bc"></circle>
  </g>
  <defs>
    <mask id="SvgjsMask1056">
      <rect width="1440" height="560" fill="#ffffff"></rect>
    </mask>
    <radialGradient id="SvgjsRadialGradient1057">
      <stop stop-color="#ffffff" offset="0.1"></stop>
      <stop stop-color="rgba(104, 14, 121, 1)" offset="0.2"></stop>
      <stop stop-color="rgba(104, 14, 121, 0)" offset="1"></stop>
    </radialGradient>
  </defs>
</svg>
